<?xml version="1.0" encoding="UTF-8"?>
<svg id="Camada_2" data-name="Camada 2" xmlns="http://www.w3.org/2000/svg" viewBox="0 0 276.95 326.3">
  <defs>
    <style>
      .cls-1 {
        fill: #fff;
      }

      .cls-2 {
        fill: #ff3840;
      }

      .cls-3 {
        fill: #f59445;
      }

      .cls-4 {
        fill: #27ad18;
      }

      .cls-5 {
        fill: #6c5080;
      }

      .cls-6 {
        fill: #3cbbe4;
      }
    </style>
  </defs>
  <g id="Camada_1-2" data-name="Camada 1">
    <g>
      <g>
        <polygon class="cls-1" points="138.48 0 0 239.85 138.46 39.71 276.95 239.85 138.48 0"/>
        <g>
          <polygon class="cls-2" points="138.47 140.54 138.47 140.71 58.84 239.85 23.12 239.85 138.47 140.54"/>
          <polygon class="cls-3" points="138.47 140.81 138.47 141.57 107.46 239.85 70.24 239.85 138.47 140.81"/>
          <polygon class="cls-5" points="138.48 140.53 138.48 140.69 218.11 239.83 253.83 239.83 138.48 140.53"/>
          <polygon class="cls-6" points="138.48 140.79 138.48 141.55 169.5 239.83 206.71 239.83 138.48 140.79"/>
          <polygon class="cls-4" points="160.25 239.83 138.48 142.13 138.48 142.15 116.71 239.85 138.48 239.85 138.48 239.83 160.25 239.83"/>
        </g>
      </g>
      <g>
        <path class="cls-1" d="M4,273.24h21.74c10.64,0,18.47,6.69,18.47,16.19s-7.83,16.27-18.47,16.27H7.8v19.76h-3.8v-52.22ZM24.98,301.98c9.05,0,15.36-5.02,15.36-12.54s-6.31-12.47-15.36-12.47H7.8v25.01h17.18Z"/>
        <path class="cls-1" d="M77.51,305.47l13.99,19.99h-4.48l-13.84-19.76h-16.65v19.76h-3.8v-52.22h21.74c10.64,0,18.47,6.69,18.47,16.19,0,8.59-6.39,14.9-15.43,16.04ZM56.53,301.98h17.18c9.05,0,15.36-5.02,15.36-12.54s-6.31-12.47-15.36-12.47h-17.18v25.01Z"/>
        <path class="cls-1" d="M101.6,273.24h3.8v52.22h-3.8v-52.22Z"/>
        <path class="cls-1" d="M114.91,318.02l2.36-2.96c4.64,4.64,11.17,7.6,18.4,7.6,8.44,0,13.91-4.56,13.91-10.57s-4.64-8.82-15.2-11.33c-11.71-2.66-17.1-6.23-17.1-13.61,0-8.59,7.07-14.9,16.95-14.9,6.84,0,13.15,2.81,18.09,7.45l-2.28,2.97c-4.48-4.26-10.11-6.77-16.04-6.77-7.52,0-12.92,4.71-12.92,10.95,0,5.17,4.71,7.83,15.2,10.34,11.48,2.74,17.1,6.61,17.1,14.6s-6.92,14.52-17.86,14.52c-7.98,0-15.28-3.04-20.6-8.29Z"/>
        <path class="cls-1" d="M164.62,273.24h3.8l20.45,38.46,20.45-38.46h3.8v52.22h-3.8v-44.32l-20.45,38.46-20.45-38.46v44.32h-3.8v-52.22Z"/>
        <path class="cls-1" d="M249.91,273.24h-4.18l-23.04,52.22h4.18l5.71-12.85,15.3-32.54,15.19,32.54,5.7,12.85h4.19l-23.04-52.22Z"/>
      </g>
    </g>
  </g>
</svg>