<?xml version="1.0" encoding="UTF-8"?>
<svg id="Camada_2" data-name="Camada 2" xmlns="http://www.w3.org/2000/svg" xmlns:xlink="http://www.w3.org/1999/xlink" viewBox="0 0 276.95 339.32">
  <defs>
    <style>
      .cls-1 {
        fill: url(#Gradiente_sem_nome_4-3);
      }

      .cls-2 {
        opacity: .09;
      }

      .cls-3 {
        fill: #fff;
      }

      .cls-4 {
        fill: #e74c3c;
      }

      .cls-5 {
        fill: #3498db;
      }

      .cls-6 {
        fill: #f39c12;
      }

      .cls-7 {
        fill: #9b59b6;
      }

      .cls-8 {
        fill: #2ecc71;
      }

      .cls-9 {
        fill: url(#Gradiente_sem_nome_4);
      }

      .cls-10 {
        fill: url(#Gradiente_sem_nome_4-5);
      }

      .cls-11 {
        fill: url(#Gradiente_sem_nome_4-4);
      }

      .cls-12 {
        fill: url(#Gradiente_sem_nome_4-2);
      }

      .cls-13 {
        fill: url(#Gradiente_sem_nome_4-7);
      }

      .cls-14 {
        fill: url(#Gradiente_sem_nome_4-6);
      }
    </style>
    <linearGradient id="Gradiente_sem_nome_4" data-name="Gradiente sem nome 4" x1="29.59" y1="246.25" x2="32.3" y2="290.48" gradientUnits="userSpaceOnUse">
      <stop offset="0" stop-color="#fff"/>
      <stop offset="1" stop-color="#000" stop-opacity="0"/>
    </linearGradient>
    <linearGradient id="Gradiente_sem_nome_4-2" data-name="Gradiente sem nome 4" x1="242.65" y1="249.56" x2="245.16" y2="290.5" xlink:href="#Gradiente_sem_nome_4"/>
    <linearGradient id="Gradiente_sem_nome_4-3" data-name="Gradiente sem nome 4" x1="78.74" y1="255.92" x2="85.69" y2="369.66" xlink:href="#Gradiente_sem_nome_4"/>
    <linearGradient id="Gradiente_sem_nome_4-4" data-name="Gradiente sem nome 4" x1="102.24" y1="254.49" x2="109.19" y2="368.22" xlink:href="#Gradiente_sem_nome_4"/>
    <linearGradient id="Gradiente_sem_nome_4-5" data-name="Gradiente sem nome 4" x1="193.66" y1="248.9" x2="200.62" y2="362.63" xlink:href="#Gradiente_sem_nome_4"/>
    <linearGradient id="Gradiente_sem_nome_4-6" data-name="Gradiente sem nome 4" x1="170.2" y1="250.33" x2="177.15" y2="364.07" xlink:href="#Gradiente_sem_nome_4"/>
    <linearGradient id="Gradiente_sem_nome_4-7" data-name="Gradiente sem nome 4" x1="139.23" y1="252.22" x2="146.18" y2="365.94" xlink:href="#Gradiente_sem_nome_4"/>
  </defs>
  <g id="Camada_1-2" data-name="Camada 1">
    <g>
      <polygon class="cls-3" points="138.48 0 0 239.85 138.46 39.71 276.95 239.85 138.48 0"/>
      <polygon class="cls-4" points="138.47 140.54 138.47 140.71 58.84 239.85 23.12 239.85 138.47 140.54"/>
      <polygon class="cls-6" points="138.47 140.81 138.47 141.57 107.46 239.85 70.24 239.85 138.47 140.81"/>
      <polygon class="cls-7" points="138.48 140.53 138.48 140.69 218.11 239.83 253.83 239.83 138.48 140.53"/>
      <polygon class="cls-5" points="138.48 140.79 138.48 141.55 169.5 239.83 206.71 239.83 138.48 140.79"/>
      <polygon class="cls-8" points="160.25 239.83 138.48 142.13 138.48 142.15 116.71 239.85 138.48 239.85 138.48 239.83 160.25 239.83"/>
      <g class="cls-2">
        <polygon class="cls-9" points="54.09 318.19 64.09 332.64 53.48 332.64 35.23 301.02 33.21 297.53 20.49 275.5 18.28 271.66 0 240 21.9 271.66 24.7 275.71 36.58 292.88 39.17 296.61 50.17 312.52 54.09 318.19"/>
        <polygon class="cls-12" points="276.95 240 255.58 277.01 252.68 282.03 235.91 311.08 227.62 325.44 223.46 332.64 212.85 332.64 238.18 296.03 253.93 273.26 276.95 240"/>
        <g>
          <polygon class="cls-1" points="138.47 339.13 138.47 339.3 130.73 332.64 104.42 309.99 100.51 306.62 89.18 296.87 86.12 294.23 64.36 275.5 59.9 271.66 23.12 240 58.84 240 100.51 291.87 104.42 296.74 122.33 319.04 127.31 325.24 133.26 332.64 138.47 339.13"/>
          <polygon class="cls-11" points="138.47 338.28 138.47 339.04 134.06 332.64 129.28 325.7 125.84 320.71 104.42 289.61 100.51 283.94 70.24 240 107.45 240 119.29 277.51 120.95 282.77 123.74 291.62 125.56 297.39 133.48 322.46 134.68 326.28 136.69 332.64 138.47 338.28"/>
          <polygon class="cls-10" points="253.83 240.02 215.34 273.15 206.66 280.62 184.31 299.87 181.34 302.42 169.31 312.78 165.4 316.15 146.24 332.64 138.48 339.32 138.48 339.15 143.71 332.64 165.4 305.64 169.31 300.77 176.02 292.42 178.62 289.18 218.11 240.02 253.83 240.02"/>
          <polygon class="cls-14" points="206.71 240.02 176.11 284.44 173.66 287.99 169.31 294.31 165.4 299.98 142.9 332.64 138.48 339.06 138.48 338.3 140.27 332.64 142.58 325.3 144.04 320.68 148.42 306.79 149.88 302.18 169.5 240.02 206.71 240.02"/>
          <polygon class="cls-13" points="160.25 240.02 151.88 277.57 151.31 280.15 146.86 300.09 145.9 304.4 142.09 321.52 141.16 325.68 139.61 332.64 138.48 337.7 137.35 332.64 135.94 326.29 135.1 322.54 129.83 298.86 128.78 294.16 124.98 277.1 124.1 273.16 116.71 240 138.48 240 138.48 240.02 160.25 240.02"/>
        </g>
      </g>
      <g>
        <path class="cls-3" d="M22.39,271.66H0v53.78h3.91v-20.35h18.48c5.07,0,9.53-1.49,12.84-4.07,1.6-1.23,2.93-2.72,3.94-4.41,1.44-2.39,2.24-5.19,2.24-8.27,0-9.79-8.06-16.68-19.02-16.68ZM33.21,297.53c-2.8,2.37-6.84,3.72-11.61,3.72H3.91v-25.75h17.69c1.07,0,2.11.07,3.1.21,7.63,1.01,12.72,5.84,12.72,12.63,0,1.64-.29,3.16-.84,4.54-.71,1.81-1.86,3.38-3.37,4.65Z"/>
        <path class="cls-3" d="M89.18,296.87c1.54-2.44,2.4-5.33,2.4-8.53,0-9.79-8.06-16.68-19.02-16.68h-22.39v53.78h3.92v-20.35h17.14l14.25,20.35h4.62l-14.41-20.59c5.95-.75,10.78-3.67,13.49-7.98ZM54.09,301.25v-25.75h17.69c9.32,0,15.81,5.17,15.81,12.84,0,2.19-.52,4.17-1.47,5.89-2.42,4.36-7.65,7.02-14.34,7.02h-17.69Z"/>
        <path class="cls-3" d="M100.51,271.66v53.78h3.91v-53.78h-3.91Z"/>
        <path class="cls-3" d="M149.88,302.18c-.86-.76-1.87-1.45-3.02-2.09-2.74-1.52-6.28-2.73-10.66-3.77-2.89-.69-5.36-1.39-7.42-2.16-2.09-.77-3.77-1.6-5.04-2.54-2.17-1.6-3.19-3.49-3.19-5.95,0-1.01.14-1.98.4-2.9.65-2.27,2.06-4.23,4.03-5.67,2.29-1.7,5.36-2.7,8.87-2.7,6.11,0,11.9,2.59,16.52,6.97l.94-1.22,1.41-1.83c-.28-.26-.56-.51-.84-.75-4.96-4.33-11.13-6.92-17.79-6.92-3.81,0-7.22.91-9.99,2.51-1.95,1.13-3.58,2.61-4.81,4.35-1.71,2.39-2.66,5.28-2.66,8.48,0,5.45,2.86,8.88,8.93,11.4,1.28.52,2.7,1.01,4.27,1.47,1.36.4,2.83.78,4.42,1.14,5.27,1.25,9.1,2.63,11.65,4.4,1.06.72,1.9,1.51,2.52,2.39,1,1.39,1.48,2.98,1.48,4.87,0,3.83-2.16,7.09-5.86,9.02-.61.32-1.26.6-1.95.84-1.89.66-4.08,1.03-6.51,1.03-.16,0-.32,0-.48,0-.55,0-1.09-.03-1.62-.08-2.68-.2-5.25-.81-7.64-1.75-1.22-.47-2.39-1.02-3.51-1.67-2.1-1.19-4.02-2.65-5.7-4.32l-2.42,3.05c3.61,3.56,8.1,6.13,13.1,7.47.65.18,1.31.33,1.97.46,1.75.35,3.55.55,5.4.58.24.02.49.02.74.02.18,0,.35,0,.52,0,1.86-.03,3.61-.24,5.22-.61.49-.11.96-.23,1.42-.38,7.04-2.11,11.24-7.41,11.24-13.95,0-3.9-1.3-6.84-3.94-9.17Z"/>
        <path class="cls-3" d="M211.43,271.66l-4.77,8.96-16.29,30.65-6.06-11.4-5.69-10.69-2.51-4.74-6.8-12.78h-3.91v53.78h3.91v-45.64l4.35,8.19,2.36,4.43,5.32,10,9.03,16.99,21.06-39.61v45.64h3.91v-53.78h-3.91Z"/>
        <path class="cls-3" d="M255.58,277.01l-1.65-3.75-.7-1.59h-4.3l-10.75,24.36-12.98,29.41h4.31l5.87-13.23.53-1.13,15.22-32.38,1.55,3.33,14.09,30.18,5.87,13.23h4.31l-21.37-48.43Z"/>
      </g>
    </g>
  </g>
</svg>